<svg width="60" height="60" fill="none" xmlns="http://www.w3.org/2000/svg"><path fill="#fff" d="M0 0h60v60H0z"/><path d="M46.452 30.968h-9.678v-8.71h9.678v8.71ZM50 9.855a7.855 7.855 0 0 1-7.855 7.855h-1.29a7.855 7.855 0 0 1 0-15.71h1.29A7.855 7.855 0 0 1 50 9.855ZM26.129 60c-4.802 0-8.71-3.908-8.71-8.71 0-4.802 3.908-8.71 8.71-8.71 4.802 0 8.71 3.908 8.71 8.71 0 4.802-3.908 8.71-8.71 8.71Zm0-12.58a3.875 3.875 0 0 0-3.871 3.87 3.875 3.875 0 0 0 3.871 3.871A3.875 3.875 0 0 0 30 51.291a3.875 3.875 0 0 0-3.871-3.872ZM30.968 37.742h9.677v4.839h-9.677v-4.84Z" fill="#41B7E9"/><path d="M16.245 19.619a2.899 2.899 0 0 0-2.816-2.2H9.677v-1.935h3.752a4.833 4.833 0 0 1 4.695 3.666l5.923 23.693a8.712 8.712 0 0 1 1.932-.255L20.001 18.68a6.764 6.764 0 0 0-6.572-5.132H2.903A2.907 2.907 0 0 0 0 16.452c0 1.6 1.303 2.903 2.903 2.903H13.43c.444 0 .83.302.94.733l6.14 24.56a8.69 8.69 0 0 1 1.712-1.13L16.245 19.62Zm-14.31-3.167a.97.97 0 0 1 .968-.968h4.839v1.935H2.903a.97.97 0 0 1-.968-.967ZM59.902 44.736c-.403-1.51-1.996-2.464-3.553-2.057l-.22.057V24.194c0-1.601-1.302-2.904-2.903-2.904H30a2.907 2.907 0 0 0-2.903 2.904v18.444a8.648 8.648 0 0 1 1.935.45V24.194a.97.97 0 0 1 .968-.967h23.226a.97.97 0 0 1 .968.968v19.06l-19.81 5.281c.203.606.346 1.238.411 1.894l22.05-5.88a.975.975 0 0 1 1.188.684.97.97 0 0 1-.686 1.186l-22.593 6.025a8.65 8.65 0 0 1-.572 2.156l23.664-6.31a2.909 2.909 0 0 0 2.056-3.554ZM26.129 46.452a4.844 4.844 0 0 0-4.839 4.838 4.844 4.844 0 0 0 4.839 4.84 4.844 4.844 0 0 0 4.839-4.84 4.844 4.844 0 0 0-4.839-4.838Zm0 7.742a2.907 2.907 0 0 1-2.903-2.904c0-1.6 1.302-2.903 2.903-2.903 1.6 0 2.903 1.303 2.903 2.903 0 1.601-1.302 2.904-2.903 2.904Z" fill="#1F2428"/><path d="M26.129 52.258a.968.968 0 1 0 0-1.935.968.968 0 0 0 0 1.935ZM40.645 25.161h1.936v5.807h-1.936V25.16ZM34.839 40.645h1.935v1.936H34.84v-1.936ZM30.968 40.645h1.935v1.936h-1.935v-1.936ZM38.71 40.645h1.935v1.936H38.71v-1.936ZM30.968 36.774h9.677v1.936h-9.677v-1.936ZM41.613 19.355c5.336 0 9.677-4.341 9.677-9.678C51.29 4.341 46.95 0 41.613 0c-5.336 0-9.678 4.341-9.678 9.677 0 5.337 4.342 9.678 9.678 9.678Zm0-17.42c4.269 0 7.742 3.474 7.742 7.742 0 4.27-3.473 7.742-7.742 7.742s-7.742-3.473-7.742-7.742c0-4.268 3.473-7.742 7.742-7.742Z" fill="#1F2428"/><path d="M44.233 10.929 42.58 9.277V3.87h-1.936v6.207l2.22 2.219 1.368-1.368ZM6.774 40.645h5.807c1.6 0 2.903-1.302 2.903-2.903 0-1.6-1.303-2.903-2.903-2.903H4.839a.97.97 0 0 1-.968-.968.97.97 0 0 1 .968-.968h9.677v-1.935H4.84a2.907 2.907 0 0 0-2.904 2.903c0 1.6 1.303 2.903 2.904 2.903h7.742a.97.97 0 0 1 .967.968.97.97 0 0 1-.967.968H6.774a2.907 2.907 0 0 0-2.903 2.903c0 1.6 1.303 2.903 2.903 2.903h3.871a.97.97 0 0 1 .968.968.97.97 0 0 1-.968.968H2.903A2.907 2.907 0 0 0 0 49.355c0 1.6 1.303 2.903 2.903 2.903h12.58v-1.935H2.904a.97.97 0 0 1-.968-.968.97.97 0 0 1 .968-.968h7.742c1.6 0 2.903-1.303 2.903-2.903s-1.302-2.903-2.903-2.903h-3.87a.97.97 0 0 1-.969-.968.97.97 0 0 1 .968-.968Z" fill="#1F2428"/></svg>