<svg width="60" height="60" fill="none" xmlns="http://www.w3.org/2000/svg"><path fill="#fff" d="M0 0h60v60H0z"/><path d="M6.774.968h46.452v6.774H6.774V.968ZM41.38 26.11c-1.662-.169-2.974-1.503-3.302-3.143l-.336-1.677v.94c0 1.87-1.303 3.578-3.152 3.857a3.725 3.725 0 0 1-4.22-2.95L30 21.29l-.343 1.715c-.317 1.587-1.571 2.883-3.177 3.09a3.724 3.724 0 0 1-4.222-3.69V21.29l-.336 1.677c-.328 1.639-1.64 2.974-3.302 3.143a3.69 3.69 0 0 1-3.136-1.22v11.884c0 1.07.866 1.936 1.935 1.936h25.162c1.069 0 1.935-.867 1.935-1.936V24.89a3.693 3.693 0 0 1-3.136 1.22Z" fill="#41B7E9"/><path d="M7.742 48.387h1.935v1.936H7.742v-1.936ZM3.871 48.387h1.935v1.936H3.871v-1.936ZM11.613 48.387h1.935v1.936h-1.935v-1.936Z" fill="#1F2428"/><path d="M55.161 13.548h-.968V0H5.806v11.613h1.936V1.935h44.516v13.549h2.903c1.6 0 2.904 1.303 2.904 2.903v28.065H19.583l-3.87-1.936H1.934V18.387c0-1.6 1.303-2.903 2.904-2.903h.967V42.58h48.388V17.419h-1.936v23.226H7.742V13.548H4.839A4.844 4.844 0 0 0 0 18.388v30.967a4.844 4.844 0 0 0 4.839 4.839h12.58v3.87h-3.87V60h32.903v-1.935H42.58v-3.871h12.58A4.844 4.844 0 0 0 60 49.353V18.388a4.844 4.844 0 0 0-4.839-4.839ZM40.645 58.065h-21.29v-3.871h21.29v3.87Zm14.516-5.807H4.84a2.907 2.907 0 0 1-2.904-2.903v-2.903h13.32l3.872 1.935h38.938v.968c0 1.6-1.303 2.903-2.904 2.903Z" fill="#1F2428"/><path d="M9.677 3.87h1.936v1.936H9.677V3.871ZM13.548 3.87h1.936v1.936h-1.936V3.871ZM17.42 3.87h1.935v1.936h-1.936V3.871ZM13.548 22.406a4.695 4.695 0 0 0 4.691 4.69c1.584 0 3.009-.81 3.862-2.059a4.689 4.689 0 0 0 3.88 2.06c1.679 0 3.19-.902 4.019-2.28a4.701 4.701 0 0 0 4.019 2.28 4.69 4.69 0 0 0 3.88-2.06c.854 1.249 2.278 2.06 3.862 2.06a4.695 4.695 0 0 0 4.69-4.691v-.512c0-.505-.08-1.005-.24-1.484l-2.932-8.797H16.72L13.79 20.41c-.16.479-.24.979-.24 1.484v.512Zm28.335-8.858 2.492 7.475c.094.28.141.574.141.871v.512a2.758 2.758 0 0 1-2.755 2.755c-1.31 0-2.444-.93-2.701-2.215l-.35-1.61v-.046h-.01l-1.686-7.742h4.869Zm-5.109 7.847v1.01a2.758 2.758 0 0 1-2.755 2.756c-1.31 0-2.444-.93-2.701-2.215l-.35-1.752v-7.646h4.063l1.743 7.847Zm-7.742-7.847v7.646l-.35 1.753a2.762 2.762 0 0 1-2.7 2.214 2.758 2.758 0 0 1-2.756-2.755v-.861l1.743-7.997h4.063Zm-13.548 8.346c0-.297.047-.59.141-.87l2.492-7.476h4.87l-1.677 7.553-.37 1.846a2.762 2.762 0 0 1-2.7 2.214 2.758 2.758 0 0 1-2.756-2.755v-.512ZM33.871 38.71v-9.678h-7.742v9.678h1.935v-7.742h3.872v7.742h1.935Z" fill="#1F2428"/></svg>