<svg width="60" height="60" fill="none" xmlns="http://www.w3.org/2000/svg"><path fill="#fff" d="M0 0h60v60H0z"/><path d="M29.032 19.355H5.806a1.937 1.937 0 0 1-1.935-1.936V9.677c0-1.067.868-1.935 1.935-1.935h23.226c1.068 0 1.936.868 1.936 1.935v7.742a1.937 1.937 0 0 1-1.936 1.936ZM41.613 56.129c-5.87 0-10.645-4.776-10.645-10.645 0-5.87 4.775-10.645 10.645-10.645 5.87 0 10.645 4.775 10.645 10.645 0 5.87-4.776 10.645-10.645 10.645Z" fill="#41B7E9"/><path d="M57.097 13.548a2.9 2.9 0 0 0-2.43 1.323l-4.086-3.065a10.647 10.647 0 0 0-4.13-1.865V4.839A4.844 4.844 0 0 0 41.614 0a4.844 4.844 0 0 0-4.839 4.839v5.915c-.689.334-1.336.745-1.935 1.217V8.71A4.844 4.844 0 0 0 30 3.87H4.839A4.844 4.844 0 0 0 0 8.71v38.71a4.844 4.844 0 0 0 4.839 4.838h23.946C31.223 56.857 36.055 60 41.612 60c8.004 0 14.516-6.512 14.516-14.516 0-7.223-5.309-13.214-12.226-14.318l1.64-4.377a9.744 9.744 0 0 0 2.382.308 9.743 9.743 0 0 0 3.092-.503l3.468-1.155a2.9 2.9 0 0 0 2.612 1.658H60V13.548h-2.903ZM38.71 7.742h1.935v8.122a7.674 7.674 0 0 0-1.935-.36V7.741Zm3.87 0h1.936v10.567l-1.418-1.135a7.906 7.906 0 0 0-.517-.378V7.742Zm-.967-5.807c1.6 0 2.903 1.303 2.903 2.904v.967H38.71V4.84c0-1.6 1.302-2.904 2.903-2.904Zm-4.839 11.027v2.883a3.434 3.434 0 0 0-1.935 3.078c0 .115.01.229.022.343a1.32 1.32 0 0 1-.472.088h-.16a1.32 1.32 0 0 1-.938-.388 1.332 1.332 0 0 1-.213-1.597l.782-1.368a8.745 8.745 0 0 1 2.914-3.04Zm-1.935 8.286c.258-.036.512-.094.752-.189.252.32.559.6.917.814l.266.159v2.337l2.55 6.797a14.405 14.405 0 0 0-4.485 1.488V21.248Zm-30 29.075a2.907 2.907 0 0 1-2.904-2.904V8.71c0-1.6 1.303-2.903 2.904-2.903H30c1.6 0 2.903 1.303 2.903 2.904v5.246c-.26.347-.507.705-.724 1.085l-.783 1.369a3.267 3.267 0 0 0 .527 3.924c.286.287.62.506.98.667v12.897a14.631 14.631 0 0 0-1.935 1.75v-2.745a1.937 1.937 0 0 0-1.936-1.935h-3.87a1.937 1.937 0 0 0-1.936 1.935v3.871c0 1.068.868 1.936 1.935 1.936h3.623a14.406 14.406 0 0 0-.84 1.935h-2.783a1.937 1.937 0 0 0-1.935 1.936v3.87c0 1.068.868 1.936 1.935 1.936h2.228c.136.665.331 1.306.555 1.936H4.838Zm22.307-3.871h-1.985V42.58h2.228c-.19.938-.292 1.909-.292 2.903 0 .327.028.646.05.968Zm1.887-9.678h-3.872v-3.87h3.871l.001 3.87Zm20.755 1.903 1.369-1.369a12.512 12.512 0 0 1 2.988 7.207H52.21c.028.32.048.642.048.969 0 .327-.02.648-.05.968h1.936a12.509 12.509 0 0 1-2.988 7.206l-1.369-1.368c-.414.496-.871.954-1.368 1.368l1.368 1.369a12.512 12.512 0 0 1-7.206 2.988V56.08c-.32.029-.641.049-.968.049-.327 0-.648-.02-.968-.05v1.936a12.509 12.509 0 0 1-7.207-2.988l1.369-1.369a10.754 10.754 0 0 1-1.369-1.368l-1.368 1.368a12.512 12.512 0 0 1-2.988-7.206h1.935c-.029-.32-.05-.641-.05-.968 0-.327.021-.648.05-.968h-1.935a12.509 12.509 0 0 1 2.988-7.207l1.368 1.369c.415-.497.872-.954 1.369-1.369l-1.369-1.368a12.511 12.511 0 0 1 7.207-2.988v1.935c.32-.029.64-.05.968-.05.327 0 .648.021.968.05v-1.935a12.508 12.508 0 0 1 7.206 2.988l-1.368 1.368c.498.414.955.871 1.37 1.368Zm-7.878-7.71h-.594l-2.606-6.949v-.825l4.183 2.51c.268.16.55.29.831.425l-1.814 4.84Zm8.495-6.208a7.919 7.919 0 0 1-6.516-.715l-6.384-3.83a1.505 1.505 0 0 1 .773-2.794c1.308 0 2.59.45 3.61 1.266l3.256 2.604h5.179v-1.935h-3.871v-7.443a8.74 8.74 0 0 1 2.967 1.443l4.775 3.58v6.56l-3.79 1.264Zm7.66.402h-.968a.97.97 0 0 1-.968-.968v-7.741a.97.97 0 0 1 .968-.968h.968v9.677Z" fill="#1F2428"/><path d="M9.677 21.29h-3.87a1.937 1.937 0 0 0-1.936 1.936v3.87c0 1.068.868 1.936 1.935 1.936h3.871a1.937 1.937 0 0 0 1.936-1.935v-3.871a1.937 1.937 0 0 0-1.936-1.936Zm-3.87 5.807v-3.871h3.87l.001 3.87H5.806ZM19.355 21.29h-3.871a1.937 1.937 0 0 0-1.936 1.936v3.87c0 1.068.868 1.936 1.936 1.936h3.87a1.937 1.937 0 0 0 1.936-1.935v-3.871a1.937 1.937 0 0 0-1.935-1.936Zm-3.871 5.807v-3.871h3.87l.002 3.87h-3.872ZM25.161 29.032h3.871a1.937 1.937 0 0 0 1.936-1.935v-3.871a1.937 1.937 0 0 0-1.936-1.936h-3.87a1.937 1.937 0 0 0-1.936 1.936v3.87c0 1.068.868 1.936 1.935 1.936Zm0-5.806h3.871l.001 3.87h-3.872v-3.87ZM9.677 30.968h-3.87a1.937 1.937 0 0 0-1.936 1.935v3.871c0 1.068.868 1.936 1.935 1.936h3.871a1.937 1.937 0 0 0 1.936-1.936v-3.87a1.937 1.937 0 0 0-1.936-1.936Zm-3.87 5.806v-3.87h3.87l.001 3.87H5.806ZM19.355 30.968h-3.871a1.937 1.937 0 0 0-1.936 1.935v3.871c0 1.068.868 1.936 1.936 1.936h3.87a1.937 1.937 0 0 0 1.936-1.936v-3.87a1.937 1.937 0 0 0-1.935-1.936Zm-3.871 5.806v-3.87h3.87l.002 3.87h-3.872ZM9.677 40.645h-3.87a1.937 1.937 0 0 0-1.936 1.936v3.87c0 1.068.868 1.936 1.935 1.936h3.871a1.937 1.937 0 0 0 1.936-1.935V42.58a1.937 1.937 0 0 0-1.936-1.936Zm-3.87 5.807V42.58h3.87l.001 3.87H5.806ZM19.355 40.645h-3.871a1.937 1.937 0 0 0-1.936 1.936v3.87c0 1.068.868 1.936 1.936 1.936h3.87a1.937 1.937 0 0 0 1.936-1.935V42.58a1.937 1.937 0 0 0-1.935-1.936Zm-3.871 5.807V42.58h3.87l.002 3.87h-3.872ZM40.645 42.58h1.936a.97.97 0 0 1 .967.968h1.936c0-1.6-1.303-2.903-2.903-2.903V38.71h-1.936v1.935a2.907 2.907 0 0 0-2.903 2.903c0 1.601 1.303 2.904 2.903 2.904h1.936a.97.97 0 0 1 .967.967.97.97 0 0 1-.967.968h-1.936a.97.97 0 0 1-.968-.968h-1.935c0 1.601 1.303 2.904 2.903 2.904v1.935h1.936v-1.935c1.6 0 2.903-1.303 2.903-2.904 0-1.6-1.303-2.903-2.903-2.903h-1.936a.97.97 0 0 1-.968-.968.97.97 0 0 1 .968-.967Z" fill="#1F2428"/></svg>