<svg width="60" height="60" fill="none" xmlns="http://www.w3.org/2000/svg"><path fill="#fff" d="M0 0h60v60H0z"/><path d="M47 36H34V23.226h13V36ZM18 28H5V17h13v11ZM13.548 4.839h13.549v7.742H13.548V4.839ZM3.871 31.936h15.484v7.742H3.87v-7.742Z" fill="#41B7E9"/><path d="M32.903 37.742h15.484V22.258H32.903v15.484Zm1.936-13.548h11.613v11.612H34.839V24.194Z" fill="#1F2428"/><path d="M60 30a5.772 5.772 0 0 0-1.255-3.601 5.766 5.766 0 0 0-.218-3.807 5.756 5.756 0 0 0-2.537-2.844 5.765 5.765 0 0 0-1.658-3.435 5.764 5.764 0 0 0-3.434-1.657 5.755 5.755 0 0 0-2.51-2.365V0H10.245L0 10.245V60h48.387V47.709a5.75 5.75 0 0 0 2.51-2.365 5.76 5.76 0 0 0 3.433-1.658 5.753 5.753 0 0 0 1.659-3.434 5.76 5.76 0 0 0 2.537-2.844 5.767 5.767 0 0 0 .218-3.807A5.767 5.767 0 0 0 60 30ZM9.677 3.304v6.373H3.304l6.373-6.373Zm-7.742 54.76V11.614h9.678V1.935h34.839v9.791a5.732 5.732 0 0 0-2.207.175c-2.047-1.627-5.152-1.627-7.199 0a5.747 5.747 0 0 0-3.807.218 5.762 5.762 0 0 0-2.845 2.537 5.765 5.765 0 0 0-3.434 1.658 5.758 5.758 0 0 0-1.657 3.435 5.76 5.76 0 0 0-2.538 2.844 5.767 5.767 0 0 0-.218 3.807A5.758 5.758 0 0 0 21.29 30c0 1.318.443 2.576 1.256 3.601a5.766 5.766 0 0 0 .217 3.807 5.757 5.757 0 0 0 2.538 2.844 5.757 5.757 0 0 0 1.657 3.434 5.766 5.766 0 0 0 3.434 1.658 5.767 5.767 0 0 0 2.845 2.538 5.76 5.76 0 0 0 3.807.218 5.77 5.77 0 0 0 3.601 1.255 5.76 5.76 0 0 0 3.6-1.256 5.75 5.75 0 0 0 2.207.174v9.791H1.935Zm55.02-25.358-.442.452.236.585a3.848 3.848 0 0 1-.011 2.924 3.85 3.85 0 0 1-2.06 2.075l-.581.248-.007.631a3.854 3.854 0 0 1-3.827 3.826l-.631.006-.248.582a3.852 3.852 0 0 1-4.998 2.07l-.587-.235-.452.442c-1.46 1.431-3.95 1.431-5.41 0l-.451-.442-.587.236a3.834 3.834 0 0 1-2.924-.012 3.848 3.848 0 0 1-2.074-2.059l-.248-.581-.632-.007a3.854 3.854 0 0 1-3.826-3.826l-.006-.63-.582-.25a3.852 3.852 0 0 1-2.071-4.998l.236-.585-.442-.452A3.866 3.866 0 0 1 23.226 30a3.85 3.85 0 0 1 1.109-2.706l.442-.452-.236-.585a3.847 3.847 0 0 1 .012-2.924 3.85 3.85 0 0 1 2.059-2.075l.582-.248.006-.631a3.854 3.854 0 0 1 3.827-3.825l.632-.007.248-.582a3.852 3.852 0 0 1 4.998-2.07l.586.235.452-.442c1.46-1.431 3.95-1.431 5.41 0l.452.442.586-.236a3.834 3.834 0 0 1 2.924.011 3.848 3.848 0 0 1 2.075 2.06l.247.582.632.006a3.856 3.856 0 0 1 3.827 3.826l.007.63.581.25a3.852 3.852 0 0 1 2.071 4.998l-.236.585.442.452A3.87 3.87 0 0 1 58.065 30a3.85 3.85 0 0 1-1.11 2.706Z" fill="#1F2428"/><path d="M40.645 16.452c-7.47 0-13.548 6.077-13.548 13.548s6.077 13.548 13.548 13.548S54.194 37.471 54.194 30c0-7.47-6.078-13.548-13.549-13.548Zm0 25.16c-6.403 0-11.613-5.208-11.613-11.612s5.21-11.613 11.613-11.613c6.404 0 11.613 5.21 11.613 11.613 0 6.404-5.21 11.613-11.613 11.613ZM28.064 53.226v-2.904c0-1.6-1.302-2.903-2.903-2.903a2.907 2.907 0 0 0-2.903 2.904v1.188a.748.748 0 0 1-1.447.263l-1.791-4.777a3.842 3.842 0 0 0-3.582-2.48 3.829 3.829 0 0 0-3.36 1.998l-3.05-3.05a2.997 2.997 0 0 0-2.137-.884 3.024 3.024 0 0 0-3.02 3.02v.13c0 .684.235 1.353.662 1.888l2.148 2.685a4.854 4.854 0 0 1 1.06 3.022v2.803h1.936v-2.803a6.798 6.798 0 0 0-1.484-4.232L6.045 46.41a1.084 1.084 0 0 1-.239-.678v-.13a1.086 1.086 0 0 1 1.853-.767l3.954 3.954v4.438c0 1.6 1.303 2.903 2.903 2.903s2.903-1.303 2.903-2.903v-.167c0-.775-.302-1.505-.85-2.052l-2.992-2.993a1.894 1.894 0 0 1 1.861-1.563 1.9 1.9 0 0 1 1.77 1.227l1.79 4.776a2.697 2.697 0 0 0 2.513 1.74 2.686 2.686 0 0 0 2.683-2.683v-1.189a.969.969 0 0 1 1.935 0v2.904c0 1.6 1.303 2.903 2.903 2.903H30v-1.935h-.968a.969.969 0 0 1-.968-.968Zm-12.864-.85c.18.18.284.429.284.683v.167a.969.969 0 0 1-1.936 0v-2.503l1.652 1.652ZM13.548 3.87h13.549v1.936H13.548V3.871ZM13.548 7.742h13.549v1.935H13.548V7.742ZM13.548 11.613h13.549v1.935H13.548v-1.935ZM19.355 15.484H3.87v13.548h15.484V15.484Zm-1.936 11.613H5.806v-9.678H17.42v9.678ZM3.871 30.968h15.484v1.935H3.87v-1.935ZM3.871 34.839h15.484v1.935H3.87V34.84ZM3.871 38.71h15.484v1.935H3.87V38.71Z" fill="#1F2428"/></svg>